<svg width="500" height="500" viewBox="0 0 500 500" fill="none" xmlns="http://www.w3.org/2000/svg">
<rect width="500" height="500" rx="85" fill="white"/>
<path fill-rule="evenodd" clip-rule="evenodd" d="M181.611 195.667C211.568 188.233 242.624 185.438 270.972 189.359C368.395 202.834 382.687 292.105 344.112 353.434C294.454 432.382 198.894 421.286 157.282 376.661C123.72 340.669 111.012 300.278 109.317 263.692C80.2704 285.297 86.2388 301.08 87.7984 320.42C89.2321 338.201 48.4371 348.038 39.2787 321.334C27.6899 287.542 61.5829 249.267 111.902 222.347C135.125 86.3369 355.818 16.4105 425.476 197.885C459.331 286.086 472.569 371.039 455.664 391.361C439.61 410.661 385.12 416.232 371.636 395.852C351.896 366.016 373.159 316.64 377.218 297.091C403.822 168.952 312.356 72.085 221.384 125.833C189.783 144.504 184.756 180.678 181.611 195.667L181.611 195.667ZM179.427 226.953C179.427 226.953 174.136 254.014 186.806 287.878C203.839 333.402 292.614 345.198 310.749 305.468C339.473 242.536 280.893 204.523 203.719 217.868C190.317 220.186 181.286 226.011 179.427 226.953L179.427 226.953Z" fill="#0D0745"/>
</svg>
