<svg width="366" height="277" viewBox="0 0 366 277" fill="none" xmlns="http://www.w3.org/2000/svg">
<path fill-rule="evenodd" clip-rule="evenodd" d="M124.23 91.8794C149.966 85.5057 176.645 83.11 200.998 86.4715C284.691 98.0243 296.968 174.561 263.83 227.141C221.171 294.827 139.078 285.314 103.33 247.054C74.4982 216.197 63.5817 181.567 62.1248 150.201C37.1722 168.723 42.2995 182.255 43.6393 198.837C44.8709 214.081 9.82524 222.515 1.95758 199.62C-7.99804 170.648 21.1184 137.834 64.3456 114.754C84.2964 -1.85456 273.886 -61.8058 333.727 93.781C362.811 169.4 374.183 242.234 359.661 259.658C345.869 276.205 299.058 280.98 287.475 263.508C270.517 237.928 288.783 195.596 292.27 178.835C315.125 68.9755 236.55 -14.0733 158.398 32.0077C131.251 48.0151 126.932 79.0285 124.231 91.8792L124.23 91.8794ZM122.355 118.702C122.355 118.702 117.809 141.903 128.694 170.937C143.326 209.966 219.59 220.08 235.169 186.017C259.845 132.063 209.52 99.4724 143.223 110.913C131.71 112.9 123.951 117.895 122.355 118.703L122.355 118.702Z" fill="#0D0745"/>
</svg>
