<svg width="301" height="356" viewBox="0 0 301 356" fill="none" xmlns="http://www.w3.org/2000/svg">
<path fill-rule="evenodd" clip-rule="evenodd" d="M32.0617 355.937C12.4048 355.937 0 346.774 0 331.121C0 316.422 11.8323 308.787 30.535 306.687L73.6658 302.106V296.57C73.6658 280.917 66.7954 275.381 48.6652 275.381C31.1076 275.381 22.5196 281.107 22.5196 295.042V295.806H2.09921V295.042C2.09921 273.472 20.0385 257.246 50.192 257.246C80.3453 257.246 93.8952 273.662 93.8952 296.379V354.028H75.0016V330.358H73.6657C68.7037 346.392 53.6271 355.937 32.0617 355.937ZM20.6111 329.785C20.6111 337.42 25.764 341.047 37.5963 341.047C59.1617 341.047 73.6658 333.03 73.6658 314.323L36.4512 318.522C25.764 319.859 20.6111 322.34 20.6111 329.785ZM157.637 354.028H132.064L103.628 259.155H125.003L140.843 312.986L145.232 337.42H146.759L153.82 311.077L173.668 259.155H200.005L220.043 311.077L227.104 337.42H228.631L233.021 312.986L248.861 259.155H269.854L241.036 354.028H215.463L194.661 299.433L187.409 276.144H185.882L178.63 299.433L157.637 354.028H157.637ZM300.961 248.083H280.35V226.13H300.961V248.083ZM300.961 354.028H280.35V259.155H300.961V354.028Z" fill="#5E72EB"/>
<path fill-rule="evenodd" clip-rule="evenodd" d="M109.448 64.1418C127.422 59.6922 146.055 58.0198 163.064 60.3665C221.516 68.4316 230.091 121.862 206.947 158.569C177.153 205.821 119.817 199.18 94.8504 172.471C74.7137 150.929 67.0893 126.754 66.0718 104.856C48.6444 117.787 52.2254 127.234 53.1612 138.81C54.0213 149.452 29.5448 155.339 24.0498 139.356C17.0966 119.131 37.4321 96.2229 67.6229 80.1105C81.5569 -1.29469 213.97 -43.1472 255.764 65.4694C276.077 118.26 284.02 169.106 273.877 181.269C264.245 192.821 231.551 196.155 223.461 183.957C211.617 166.1 224.375 136.547 226.81 124.846C242.772 48.1524 187.894 -9.82472 133.311 22.3449C114.351 33.5197 111.335 55.1705 109.448 64.1416L109.448 64.1418ZM108.138 82.8672C108.138 82.8672 104.963 99.0639 112.565 119.332C122.784 146.579 176.049 153.639 186.929 129.86C204.163 92.1942 169.016 69.4426 122.713 77.4297C114.671 78.8167 109.253 82.3034 108.138 82.8673L108.138 82.8672Z" fill="#5E72EB"/>
</svg>
