<?xml version="1.0" encoding="UTF-8" standalone="no"?><!DOCTYPE svg PUBLIC "-//W3C//DTD SVG 1.1//EN" "http://www.w3.org/Graphics/SVG/1.1/DTD/svg11.dtd"><svg width="100%" height="100%" viewBox="0 0 1977 1495" version="1.1" xmlns="http://www.w3.org/2000/svg" xmlns:xlink="http://www.w3.org/1999/xlink" xml:space="preserve" xmlns:serif="http://www.serif.com/" style="fill-rule:evenodd;clip-rule:evenodd;stroke-linejoin:round;stroke-miterlimit:2;"><g id="black-on-white" serif:id="black on white"><g id="good-version" serif:id="good version"><path d="M671.048,495.952c-114.59,28.36 -225.714,71.31 -323.477,123.472c107.767,-629.435 1131.862,-953.043 1455.098,-113.207c157.101,408.18 218.53,801.33 140.085,895.379c-74.498,89.318 -327.352,115.097 -389.921,20.782c-91.6,-138.075 7.067,-366.578 25.902,-457.052c123.453,-593.006 -300.983,-1041.292 -723.127,-792.553c-146.642,86.406 -169.968,253.812 -184.562,323.178Z"/><path d="M347.571,619.424c97.763,-52.162 208.887,-95.112 323.477,-123.472c139.013,-34.404 283.126,-47.336 414.669,-29.19c452.077,62.361 518.397,475.494 339.395,759.313c-230.43,365.36 -673.865,314.01 -866.961,107.49c-155.738,-166.565 -214.705,-353.489 -222.575,-522.801c-134.785,99.982 -107.089,173.027 -99.852,262.529c6.653,82.285 -182.651,127.811 -225.149,4.227c-53.777,-156.384 103.5,-333.512 336.997,-458.096Zm313.345,21.315c0,0 -24.553,125.235 34.241,281.953c79.036,210.675 490.988,265.266 575.137,81.401c133.291,-291.237 -138.542,-467.156 -496.655,-405.399c-62.191,10.725 -104.099,37.684 -112.723,42.044Z"/></g></g></svg>